# xmcd
# 
# Track frame offsets:
#     150
#     8829
#     12467
#     24204
#     35563
#     48476
#     59218
#     70817
#     81050
#     92761
#     101846
#     109986
#     120317
#     131826
#     134881
#     144516
#     154782
#     163725
#     174992
#     185432
#     198378
#     208078
#     218076
#     229705
#     239764
#     249029
#     251456
#     258354
#     269717
#     281919
#     290355
#     301883
#     309481
#     323928
# 
# Disc length: 4451
# 
# Revision: 1
# Processed by: cddbd v1.5.2PL0 Copyright (c) Steve Scherf et al.
# Submitted via: fre:ac v1.0.31
# 
DISCID=fe116122
DTITLE=Halloween - Halloween Nuggets Disc 3
DYEAR=0
DGENRE=Halloween
TTITLE0=Ralph Nieson and The Chancellors - Scream
TTITLE1=/ Night Of The Blood Beast
TTITLE2=Billy and The Dukes - Roland
TTITLE3=Al Saxon - Evil Eye
TTITLE4=Kiriae Crucible - The Salem Witch Trial
TTITLE5=The 7th Court - One Eyed Witch
TTITLE6=Dave Gardner - Mad Witch
TTITLE7=Ervinna and The Stylers - Witch Queen Of New Orleans
TTITLE8=Betty Lavett - Witchcraft In The Air
TTITLE9=The Circus - Burn Witch Burn
TTITLE10=Miss L. L. Louise Lewis - Monster's Bride
TTITLE11=Glenn Ryle - Wolf Gal
TTITLE12=Gary Warren - Midnight Rain
TTITLE13=/ Creature From The Black Lagoon
TTITLE14=Evans Carroll and The Tempos - The Monster
TTITLE15=Billy Taylor and The Teardrops - Wombie Zombie
TTITLE16=Jan Davis - Watusi Zombi
TTITLE17=Terry Teene - Here Comes The Hearse
TTITLE18=Frankie Stein and His Ghouls - Knives And Lovers
TTITLE19=Blue Knights - Madness
TTITLE20=The Elites - Jack The Ripper
TTITLE21=Larry and The Blue Notes - Night Of The Phantom
TTITLE22=The Upperclassmen - Cha Cha With The Zombies
TTITLE23=Bela La Goldenstein - Old Boris
TTITLE24=Chris Kevin - Haunted House
TTITLE25=/ The House On Haunted Hill
TTITLE26=Kenny and The Fiends - The House On Haunted Hill
TTITLE27=Skip Manning - Devil Blues
TTITLE28=The Devotions - Devil's Gotten Into My Baby
TTITLE29=Twelfth Night - Grim Reaper
TTITLE30=James Duhon - Grave Yard Creep
TTITLE31=/ Godzilla King Of The Monsters
TTITLE32=Los Holys - Campo De Vampiros
TTITLE33=Richard Rome - Ghost A' Go Go
EXTD=
EXTT0=
EXTT1=
EXTT2=
EXTT3=
EXTT4=
EXTT5=
EXTT6=
EXTT7=
EXTT8=
EXTT9=
EXTT10=
EXTT11=
EXTT12=
EXTT13=
EXTT14=
EXTT15=
EXTT16=
EXTT17=
EXTT18=
EXTT19=
EXTT20=
EXTT21=
EXTT22=
EXTT23=
EXTT24=
EXTT25=
EXTT26=
EXTT27=
EXTT28=
EXTT29=
EXTT30=
EXTT31=
EXTT32=
EXTT33=
PLAYORDER=
